<?xml version="1.0" encoding="utf-8"?>
<!-- Generator: Adobe Illustrator 21.1.0, SVG Export Plug-In . SVG Version: 6.00 Build 0)  -->
<svg version="1.1" id="Layer_1" xmlns="http://www.w3.org/2000/svg" xmlns:xlink="http://www.w3.org/1999/xlink" x="0px" y="0px"
	 viewBox="0 0 450 86.9" style="enable-background:new 0 0 450 86.9;" xml:space="preserve">
<style type="text/css">
	.st0{fill:#17405B;}
	.st1{fill:#9D0B0F;}
	.st2{fill:#C3161C;}
	.st3{fill:#0E5476;}
</style>
<g>
	<g>
		<polygon class="st0" points="166.6,57.6 190.3,71.1 166.6,57.6 		"/>
		<path class="st0" d="M210.3,32.2c2.5-2.1,1.3-6.2-1.9-6.6l-22.2-2.8c-1.1-0.1-2-0.8-2.6-1.7l-9.6-16.9c-1.1-1.6-1.1-1.7-5.7-1.7
			c0,0,0,0-0.1,0c2.6,0,2.9,0.3,3.8,1.7l9.6,16.9c0.5,0.9,1.5,1.6,2.6,1.7l22.2,2.8c3.2,0.4,4.4,4.5,1.9,6.6l-16,13.4
			c-0.6,0.5-0.8,1.2-0.7,1.9l3.9,19.5c0.5,2.6-1.7,4.7-4.1,4.4c2.8,0.3,6.6-1.8,6.1-4.4l-3.9-19.5c-0.1-0.7,0.1-1.4,0.7-1.9
			L210.3,32.2z"/>
		<path class="st1" d="M163,2.8c0.1,0,0.2-0.1,0.2-0.2c0-0.1-0.1-0.2-0.2-0.2c-0.1,0-0.2,0-0.4,0h-1.4c-0.1,0-0.2,0-0.2,0
			c0,0,0,0,0,0c0.1,0,0.2,0.1,0.2,0.2c0,0,0,0,0,0c0,0.1-0.1,0.2-0.2,0.2c-0.7,0.1-1.2,0.7-1.2,1.4l0,14.5c0,0.2,0,0.3,0.1,0.4
			c0.3,0.8,0.6,1.9,1.1,3.1c0.1,0.3,0.1,0.6,0,0.8c-0.6,1.6-1.2,3.3-1.8,5.3c-0.8,2.2-1.6,4.6-2.6,7.5l-2.2,6.4
			c-0.1,0.4-0.1,0.9,0.2,1.2c0.3,0.4,0.7,0.6,1.1,0.6h1.2h0.8c-0.4,0-0.8-0.2-1.1-0.6c-0.3-0.4-0.3-0.8-0.2-1.2l2.2-6.4
			c1-2.8,1.9-5.3,2.6-7.5c0.7-2,1.3-3.7,1.8-5.3c0.1-0.3,0.1-0.5,0-0.8c-0.4-1.2-0.8-2.2-1.1-3.1c0-0.1-0.1-0.3-0.1-0.4l0-14.5
			C161.8,3.5,162.3,2.9,163,2.8z"/>
		<path class="st1" d="M152.1,56.8h-1.4c-0.3,0-0.6,0.2-0.7,0.5l-1.6,5.1l-0.6,1.8c-0.4,1.3-0.8,2.5-1.2,3.7
			c-0.5,1.8-1.9,3.1-3.6,3.6c-0.5,0.1-1,0.2-1.5,0.2l2,0c2.4,0,4.5-1.5,5.2-3.8c0.4-1.2,0.8-2.5,1.2-3.7l0.6-1.8l1.6-5.1
			c0.1-0.3,0.4-0.5,0.7-0.5H152.1z"/>
		<path class="st1" d="M162.6,44.4c0.1,0,0.2-0.2,0.1-0.3c0-0.1-0.1-0.2-0.2-0.2h-2c0.1,0,0.2,0.1,0.2,0.2c0,0,0,0,0,0.1
			c0,0.1,0,0.2-0.1,0.2c-0.5,0.2-0.8,0.7-0.8,1.3v9.7c0,0.4,0.1,0.7,0.4,1c0,0,0,0.1,0,0.2c0,0,0,0.1,0,0.1c0,0.1-0.1,0.2-0.2,0.2h2
			c0.1,0,0.2-0.1,0.2-0.2c0-0.1,0-0.2-0.1-0.3c-0.3-0.3-0.4-0.6-0.4-1l0-9.7C161.8,45.1,162.1,44.7,162.6,44.4z"/>
		<path class="st2" d="M161.2,2.8c0.1,0,0.2-0.1,0.2-0.2c0,0,0,0,0,0c0-0.1-0.1-0.2-0.2-0.2c0,0,0,0,0,0c-0.1,0-0.2,0-0.4,0h-1.4
			c-2.2,0-4.1,1.3-4.9,3.2c-1.7,3.8-3.3,7.7-4.8,11.6c-2,5.1-4.1,10.5-6.1,15.9c-2,5.6-4.2,11.5-6.3,17.8c-1.5,4.4-3,9-4.6,13.9
			c-0.5,1.7-0.3,3.4,0.8,4.8c1,1.4,2.6,2.2,4.3,2.2l3.9,0l0,0c0.5,0,1-0.1,1.5-0.2c1.7-0.5,3.1-1.8,3.6-3.6c0.4-1.2,0.8-2.5,1.2-3.7
			l0.6-1.8l1.6-5.1c0.1-0.3,0.4-0.5,0.7-0.5h1.4h0.6h7.3c0.1,0,0.2-0.1,0.2-0.2c0,0,0-0.1,0-0.1c0-0.1,0-0.1,0-0.2
			c-0.3-0.3-0.4-0.6-0.4-1v-9.7c0-0.5,0.3-1,0.8-1.3c0.1,0,0.1-0.1,0.1-0.2c0,0,0,0,0-0.1c0-0.1-0.1-0.2-0.2-0.2h-3h-0.8h-1.2
			c-0.4,0-0.8-0.2-1.1-0.6c-0.3-0.4-0.3-0.8-0.2-1.2l2.2-6.4c1-2.8,1.9-5.3,2.6-7.5c0.7-2,1.3-3.7,1.8-5.3c0.1-0.3,0.1-0.5,0-0.8
			c-0.4-1.2-0.8-2.2-1.1-3.1c0-0.1-0.1-0.3-0.1-0.4l0-14.5C160,3.5,160.5,2.9,161.2,2.8z"/>
		<path class="st3" d="M195.5,67l-3.9-19.5c-0.1-0.7,0.1-1.4,0.7-1.9l16-13.4c2.5-2.1,1.3-6.2-1.9-6.6l-22.2-2.8
			c-1.1-0.1-2-0.8-2.6-1.7L172,4.2c-0.9-1.4-1.1-1.6-3.8-1.7c-0.5,0-1.1,0-1.9,0c-0.9,0-1.6,0.7-1.6,1.6l0,14.1c0,0.2,0,0.3,0.1,0.5
			c0.3,0.9,0.7,2.1,1.2,3.5c0.6,1.7,1.3,3.7,2.1,6c0.8,2.3,1.7,4.7,2.6,7.5c0.7,2.1,1.5,4.2,2.2,6.4c0.4,1-0.4,2.1-1.5,2.1
			c-1.1,0-2.3,0-3.1,0c-0.7,0-1.4,0-2,0c-0.9,0-1.6,0.7-1.6,1.6l0,9.7c0,0.6,0.3,1.1,0.8,1.4l1.2,0.7l23.6,13.5
			c0.4,0.2,0.8,0.3,1.1,0.3C193.8,71.7,196,69.6,195.5,67z"/>
	</g>
	<g>
		<path class="st3" d="M52.5,46.7c0-3.7,0.6-7,1.7-9.7c1.1-2.8,2.7-5.1,4.5-7c1.9-1.9,4-3.3,6.5-4.2c2.4-1,4.9-1.4,7.5-1.4
			c6,0,10.7,1.8,14.2,5.5s5.2,9,5.2,16c0,0.7,0,1.4-0.1,2.3c-0.1,0.8-0.1,1.6-0.2,2.2H64.7c0.3,2.4,1.4,4.4,3.4,5.8s4.8,2.1,8.2,2.1
			c2.2,0,4.3-0.2,6.5-0.6c2.1-0.4,3.8-0.9,5.2-1.5l1.6,9.6c-0.6,0.3-1.5,0.6-2.6,1c-1.1,0.3-2.3,0.6-3.6,0.8
			c-1.3,0.2-2.7,0.4-4.2,0.6c-1.5,0.2-3,0.2-4.5,0.2c-3.8,0-7.1-0.6-9.9-1.7c-2.8-1.1-5.1-2.6-7-4.6c-1.8-1.9-3.2-4.2-4.1-6.9
			C52.9,52.6,52.5,49.8,52.5,46.7z M80.5,42.2c-0.1-1-0.2-2-0.5-2.9c-0.3-1-0.7-1.8-1.4-2.5c-0.6-0.7-1.4-1.4-2.3-1.8
			s-2.1-0.7-3.5-0.7c-1.3,0-2.5,0.2-3.4,0.7s-1.8,1-2.4,1.8c-0.6,0.7-1.1,1.6-1.5,2.6c-0.3,1-0.6,2-0.8,3H80.5z"/>
		<path class="st3" d="M99.4,14.8l8.1-1.3c1.2-0.2,2.2,0.7,2.2,1.9v10.1h12.4c1.1,0,1.9,0.9,1.9,1.9v6c0,1.1-0.9,1.9-1.9,1.9h-12.4
			V50c0,2.5,0.4,4.5,1.3,6s2.7,2.2,5.3,2.2c1.3,0,2.6-0.1,4-0.4c1.4-0.2,2.6-0.6,3.7-1l1.7,9.2c-1.4,0.6-3,1.1-4.8,1.5
			c-1.8,0.4-3.9,0.6-6.5,0.6c-3.3,0-6-0.4-8.1-1.3c-2.1-0.9-3.8-2.1-5.1-3.7c-1.3-1.6-2.2-3.5-2.7-5.7c-0.5-2.2-0.8-4.7-0.8-7.4
			V16.7C97.8,15.7,98.5,14.9,99.4,14.8z"/>
		<path class="st2" d="M218.6,26.9c2-0.6,4.7-1.1,7.9-1.6s6.6-0.8,10.1-0.8c3.6,0,6.6,0.5,8.9,1.4c2.4,0.9,4.3,2.2,5.7,3.9
			c1.4,1.7,2.4,3.7,3,6c0.6,2.3,0.9,4.9,0.9,7.8v21.7c0,1.1-0.9,1.9-1.9,1.9H245c-1.1,0-1.9-0.9-1.9-1.9V45.1c0-3.8-0.5-6.5-1.5-8.1
			c-1-1.6-2.9-2.4-5.7-2.4c-0.9,0-1.8,0-2.7,0.1c-1,0.1-1.8,0.2-2.6,0.3v30.4c0,1.1-0.9,1.9-1.9,1.9h-8.1c-1.1,0-1.9-0.9-1.9-1.9
			V26.9z"/>
		<path class="st2" d="M299.2,62.1c0,6.8-1.8,11.9-5.2,15.2c-3.5,3.3-8.9,5-16.2,5c-2.6,0-5.1-0.2-7.7-0.7c-1.9-0.3-3.8-0.8-5.5-1.3
			c-1-0.3-1.5-1.3-1.3-2.2l1.3-6.1c0.2-1.1,1.4-1.8,2.5-1.4c1.2,0.4,2.5,0.7,3.8,1c2.1,0.4,4.4,0.6,7,0.6c3.4,0,5.8-0.7,7.3-2.2
			c1.4-1.5,2.1-3.4,2.1-5.7v-1.5c-1.3,0.6-2.6,1-4,1.3c-1.4,0.3-2.8,0.4-4.4,0.4c-5.8,0-10.3-1.7-13.4-5.1
			c-3.1-3.4-4.7-8.2-4.7-14.4c0-3.1,0.5-5.9,1.4-8.4c1-2.5,2.4-4.7,4.2-6.5c1.8-1.8,4.1-3.2,6.8-4.2c2.7-1,5.7-1.5,9.1-1.5
			c1.4,0,2.9,0.1,4.5,0.2c1.5,0.1,3,0.3,4.5,0.5c1.5,0.2,2.9,0.5,4.3,0.8c1.4,0.3,2.6,0.6,3.6,0.9V62.1z M273,45
			c0,6.6,2.7,9.9,8.1,9.9c1.2,0,2.4-0.2,3.4-0.5c1.1-0.3,2-0.7,2.7-1.1V34.4c-0.6-0.1-1.3-0.2-2.1-0.3c-0.8-0.1-1.7-0.1-2.8-0.1
			c-3.2,0-5.5,1-7.1,3.1C273.8,39.2,273,41.8,273,45z"/>
		<path class="st2" d="M305.4,46.7c0-3.7,0.6-7,1.7-9.7c1.1-2.8,2.7-5.1,4.5-7c1.9-1.9,4-3.3,6.5-4.2c2.4-1,4.9-1.4,7.5-1.4
			c6,0,10.7,1.8,14.2,5.5s5.2,9,5.2,16c0,0.7,0,1.4-0.1,2.3c-0.1,0.8-0.1,1.6-0.2,2.2h-27.1c0.3,2.4,1.4,4.4,3.4,5.8
			c2,1.4,4.8,2.1,8.2,2.1c2.2,0,4.3-0.2,6.5-0.6c2.1-0.4,3.8-0.9,5.2-1.5l1.6,9.6c-0.6,0.3-1.5,0.6-2.6,1c-1.1,0.3-2.3,0.6-3.6,0.8
			c-1.3,0.2-2.7,0.4-4.2,0.6c-1.5,0.2-3,0.2-4.5,0.2c-3.8,0-7.1-0.6-9.9-1.7c-2.8-1.1-5.1-2.6-7-4.6c-1.8-1.9-3.2-4.2-4.1-6.9
			C305.8,52.6,305.4,49.8,305.4,46.7z M333.4,42.2c-0.1-1-0.2-2-0.5-2.9c-0.3-1-0.7-1.8-1.4-2.5c-0.6-0.7-1.4-1.4-2.3-1.8
			c-0.9-0.5-2.1-0.7-3.5-0.7c-1.3,0-2.5,0.2-3.4,0.7s-1.8,1-2.4,1.8c-0.6,0.7-1.1,1.6-1.5,2.6c-0.3,1-0.6,2-0.8,3H333.4z"/>
		<path class="st2" d="M368.3,66.4c-0.2,1-1,1.7-2,1.6c-2.7-0.1-4.9-0.5-6.7-1.1c-2.2-0.7-3.9-1.7-5.1-2.9c-1.3-1.2-2.1-2.8-2.6-4.5
			c-0.5-1.8-0.7-3.8-0.7-6V9.1c0-0.9,0.7-1.8,1.6-1.9l8.1-1.3c1.2-0.2,2.2,0.7,2.2,1.9v43.3c0,1.1,0.1,2,0.2,2.9
			c0.2,0.8,0.5,1.6,0.9,2.1c0.5,0.6,1.1,1.1,2,1.4c0.9,0.4,2,0.6,3.4,0.7L368.3,66.4z"/>
		<path class="st2" d="M371.4,46.7c0-3.7,0.6-7,1.7-9.7c1.1-2.8,2.7-5.1,4.5-7c1.9-1.9,4-3.3,6.5-4.2c2.4-1,4.9-1.4,7.5-1.4
			c6,0,10.7,1.8,14.2,5.5s5.2,9,5.2,16c0,0.7,0,1.4-0.1,2.3c-0.1,0.8-0.1,1.6-0.2,2.2h-27.1c0.3,2.4,1.4,4.4,3.4,5.8
			c2,1.4,4.8,2.1,8.2,2.1c2.2,0,4.3-0.2,6.5-0.6c2.1-0.4,3.8-0.9,5.2-1.5l1.6,9.6c-0.6,0.3-1.5,0.6-2.6,1c-1.1,0.3-2.3,0.6-3.6,0.8
			c-1.3,0.2-2.7,0.4-4.2,0.6c-1.5,0.2-3,0.2-4.5,0.2c-3.8,0-7.1-0.6-9.9-1.7c-2.8-1.1-5.1-2.6-7-4.6c-1.8-1.9-3.2-4.2-4.1-6.9
			C371.8,52.6,371.4,49.8,371.4,46.7z M399.5,42.2c-0.1-1-0.2-2-0.5-2.9c-0.3-1-0.7-1.8-1.4-2.5c-0.6-0.7-1.4-1.4-2.3-1.8
			s-2.1-0.7-3.5-0.7c-1.3,0-2.5,0.2-3.4,0.7c-1,0.5-1.8,1-2.4,1.8c-0.6,0.7-1.1,1.6-1.5,2.6c-0.3,1-0.6,2-0.8,3H399.5z"/>
		<path class="st2" d="M429.3,58.8c2.2,0,3.7-0.2,4.7-0.6c0.9-0.4,1.4-1.2,1.4-2.5c0-1-0.6-1.8-1.8-2.5c-1.2-0.7-3-1.5-5.4-2.4
			c-1.9-0.7-3.6-1.4-5.1-2.1c-1.5-0.7-2.8-1.6-3.9-2.7c-1.1-1-1.9-2.3-2.5-3.7c-0.6-1.4-0.9-3.2-0.9-5.2c0-3.9,1.5-7,4.4-9.3
			s7-3.4,12.1-3.4c2.6,0,5,0.2,7.4,0.7c1.5,0.3,2.8,0.6,3.9,0.9c1,0.3,1.6,1.3,1.3,2.3l-1.7,7.5c-1.4-0.5-2.9-0.9-4.5-1.3
			c-1.6-0.4-3.5-0.6-5.5-0.6c-3.7,0-5.6,1-5.6,3.1c0,0.5,0.1,0.9,0.2,1.3c0.2,0.4,0.5,0.7,1,1.1c0.5,0.3,1.1,0.7,2,1.1
			c0.8,0.4,1.9,0.8,3.2,1.3c2.6,1,4.8,1.9,6.5,2.8c1.7,0.9,3.1,1.9,4,3c1,1.1,1.7,2.3,2.1,3.6c0.4,1.3,0.6,2.9,0.6,4.6
			c0,4.1-1.6,7.3-4.7,9.4c-3.1,2.1-7.6,3.2-13.3,3.2c-3.7,0-6.9-0.3-9.3-1c-1.5-0.4-2.6-0.7-3.6-1c-0.9-0.3-1.5-1.3-1.3-2.2l1.2-5.8
			c0.2-1.1,1.4-1.8,2.5-1.4c1.4,0.5,2.8,0.8,4.2,1.1C425.1,58.6,427.2,58.8,429.3,58.8z"/>
		<path class="st3" d="M21.4,69.1c-3,0-6.1-0.1-9.1-0.3c-1.5-0.1-3.1-0.3-4.7-0.5c-2.7-0.4-4.7-2.7-4.7-5.4V18.8
			c0-2.8,2-5.1,4.8-5.4c1.2-0.1,2.4-0.3,3.7-0.4c3-0.2,5.9-0.4,8.5-0.4c3.5,0,6.8,0.3,9.7,0.8c3,0.5,5.5,1.4,7.7,2.6
			c2.1,1.2,3.8,2.8,5,4.8s1.8,4.4,1.8,7.4c0,2.5-0.7,4.7-2,6.5c-1.5,2.1-1.2,5.1,0.8,6.8c0.9,0.8,1.6,1.6,2.1,2.5
			c1.3,2.3,1.9,4.9,1.9,7.7c0,5.8-2.1,10.1-6.4,13.1C36.1,67.6,29.7,69.1,21.4,69.1z M15,34.9h6.1c3.8,0,6.6-0.5,8.3-1.5
			c1.7-1,2.5-2.6,2.5-4.7c0-2.2-0.9-3.8-2.6-4.7c-1.7-0.9-4.2-1.4-7.5-1.4c-1.1,0-2.2,0-3.4,0c-1.2,0-2.3,0.1-3.3,0.2V34.9z
			 M15,44.4v14.2c0.9,0.1,1.9,0.2,3,0.2c1.1,0.1,2.2,0.1,3.5,0.1c3.7,0,6.8-0.5,9.1-1.6c2.3-1.1,3.4-3,3.4-5.9c0-2.5-1-4.4-2.9-5.5
			c-1.9-1.1-4.7-1.6-8.3-1.6H15z"/>
	</g>
</g>
</svg>
